<svg xmlns="http://www.w3.org/2000/svg" xmlns:xlink="http://www.w3.org/1999/xlink" width="1600" zoomAndPan="magnify" viewBox="0 0 1200 899.99999" height="1200" preserveAspectRatio="xMidYMid meet" version="1.0"><rect x="-120" width="1440" fill="#ffffff" y="-89.999999" height="1079.999988" fill-opacity="1"/><rect x="-120" width="1440" fill="#ffffff" y="-89.999999" height="1079.999988" fill-opacity="1"/><path fill="#003366" d="M 270.785156 251.621094 C 133.671875 363.210938 137.320312 568.882812 235.050781 705.996094 C 333.507812 844.570312 510.738281 900 668.273438 829.253906 C 813.414062 763.613281 903.121094 616.289062 914.0625 459.480469 C 923.542969 317.261719 866.652344 164.828125 739.75 91.167969 C 582.214844 0 348.097656 45.949219 233.589844 184.523438 C 208.0625 215.152344 251.824219 253.078125 279.539062 225.363281 C 379.457031 126.90625 527.511719 75.851562 663.898438 124.714844 C 779.132812 165.558594 840.398438 281.523438 849.148438 398.21875 C 858.632812 527.308594 807.578125 658.589844 702.554688 737.359375 C 590.964844 820.503906 437.074219 822.691406 331.320312 728.605469 C 197.851562 609.722656 165.761719 401.863281 280.269531 260.371094 C 286.101562 253.078125 277.351562 246.515625 270.785156 251.621094 Z M 270.785156 251.621094 " fill-opacity="1" fill-rule="nonzero"/><path fill="#ffcc00" d="M 989.910156 28.445312 C 787.15625 155.347656 616.492188 346.433594 486.671875 548.460938 C 467.707031 525.121094 449.472656 501.78125 429.78125 479.171875 C 405.714844 450.730469 380.917969 414.992188 340.804688 414.261719 C 336.425781 414.261719 332.78125 417.179688 332.050781 421.554688 C 320.382812 459.480469 351.015625 494.488281 370.707031 523.664062 C 397.691406 563.046875 426.863281 601.703125 455.308594 640.355469 C 474.269531 665.882812 510.007812 663.695312 526.785156 638.167969 C 596.070312 531.6875 671.921875 430.308594 757.253906 335.496094 C 841.128906 241.410156 935.210938 157.535156 1026.378906 71.476562 C 1051.175781 48.136719 1016.167969 11.667969 989.910156 28.445312 Z M 989.910156 28.445312 " fill-opacity="1" fill-rule="nonzero"/></svg>