<svg xmlns="http://www.w3.org/2000/svg" xmlns:xlink="http://www.w3.org/1999/xlink" width="48" zoomAndPan="magnify" viewBox="0 0 36 36.000001" height="48" preserveAspectRatio="xMidYMid meet" version="1.0"><defs><clipPath id="cb4f3ec76c"><path d="M 8.214844 1.457031 L 27.917969 1.457031 L 27.917969 30 L 8.214844 30 Z M 8.214844 1.457031 " clip-rule="nonzero"/></clipPath><clipPath id="9f24e54baa"><path d="M 14 23 L 28 23 L 28 34.472656 L 14 34.472656 Z M 14 23 " clip-rule="nonzero"/></clipPath><clipPath id="e970d5f661"><path d="M 7.777344 1 L 28 1 L 28 30 L 7.777344 30 Z M 7.777344 1 " clip-rule="nonzero"/></clipPath></defs><g clip-path="url(#cb4f3ec76c)"><path fill="#ffffff" d="M 8.085938 14.355469 L 8.085938 16.730469 C 8.085938 17.707031 8.882812 18.503906 9.859375 18.503906 C 10.832031 18.503906 11.628906 17.707031 11.628906 16.730469 L 11.628906 18.273438 C 11.628906 19.246094 12.425781 20.042969 13.402344 20.042969 C 14.375 20.042969 15.171875 19.246094 15.171875 18.273438 L 15.171875 19.8125 C 15.171875 20.785156 15.96875 21.582031 16.945312 21.582031 C 17.917969 21.582031 18.714844 20.785156 18.714844 19.8125 L 18.714844 27.667969 C 18.714844 28.640625 19.511719 29.4375 20.488281 29.4375 C 21.460938 29.4375 22.257812 28.640625 22.257812 27.667969 L 22.257812 10.132812 L 23.902344 12.980469 C 24.453125 13.933594 25.683594 14.261719 26.636719 13.710938 C 27.589844 13.160156 27.921875 11.929688 27.371094 10.976562 L 23.976562 5.101562 C 22.597656 2.773438 19.746094 1.160156 16.472656 1.160156 C 11.859375 1.160156 8.085938 4.351562 8.085938 8.246094 Z M 8.085938 14.355469 " fill-opacity="1" fill-rule="nonzero"/></g><path fill="#ffffff" d="M 23.730469 28.847656 C 23.082031 30.636719 21.09375 31.5625 19.304688 30.914062 C 17.515625 30.261719 16.589844 28.273438 17.242188 26.484375 C 17.4375 25.945312 17.757812 25.480469 18.15625 25.117188 L 18.15625 24.355469 C 17.503906 24.816406 16.976562 25.472656 16.683594 26.28125 C 15.917969 28.382812 17 30.707031 19.101562 31.46875 C 21.203125 32.234375 23.527344 31.152344 24.289062 29.050781 C 24.929688 27.292969 24.277344 25.382812 22.816406 24.355469 L 22.816406 25.117188 C 23.816406 26.035156 24.222656 27.496094 23.730469 28.847656 Z M 23.730469 28.847656 " fill-opacity="1" fill-rule="nonzero"/><path fill="#ffffff" d="M 25.785156 29.59375 C 24.722656 32.515625 21.480469 34.027344 18.558594 32.964844 C 15.636719 31.902344 14.125 28.660156 15.1875 25.738281 C 15.726562 24.257812 16.824219 23.140625 18.15625 22.535156 L 18.15625 21.625 C 16.472656 22.273438 15.066406 23.621094 14.402344 25.453125 C 13.175781 28.8125 14.910156 32.527344 18.273438 33.753906 C 21.632812 34.976562 25.347656 33.242188 26.570312 29.882812 C 27.78125 26.558594 26.101562 22.890625 22.816406 21.625 L 22.816406 22.535156 C 25.472656 23.738281 26.796875 26.8125 25.785156 29.59375 Z M 25.785156 29.59375 " fill-opacity="1" fill-rule="nonzero"/><g clip-path="url(#9f24e54baa)"><path fill="#ffffff" d="M 20.835938 34.472656 L 20.871094 34.472656 C 24.230469 34.464844 27.066406 31.65625 27.117188 28.300781 C 27.128906 27.359375 26.941406 26.460938 26.546875 25.601562 C 26.152344 24.746094 25.59375 24.015625 24.871094 23.410156 C 24.769531 23.324219 24.65625 23.308594 24.53125 23.367188 C 24.410156 23.421875 24.347656 23.519531 24.347656 23.65625 C 24.347656 23.710938 24.359375 23.769531 24.382812 23.820312 C 24.410156 23.871094 24.441406 23.917969 24.488281 23.957031 C 24.917969 24.320312 25.28125 24.742188 25.582031 25.21875 C 25.886719 25.695312 26.109375 26.207031 26.257812 26.753906 C 26.40625 27.296875 26.46875 27.851562 26.449219 28.414062 C 26.425781 28.980469 26.324219 29.527344 26.136719 30.0625 C 25.953125 30.59375 25.691406 31.085938 25.355469 31.539062 C 25.019531 31.992188 24.625 32.386719 24.167969 32.722656 C 23.714844 33.054688 23.21875 33.316406 22.6875 33.5 C 22.152344 33.683594 21.605469 33.785156 21.042969 33.804688 C 20.980469 33.808594 20.917969 33.808594 20.855469 33.808594 C 20.792969 33.808594 20.730469 33.808594 20.667969 33.804688 C 20.105469 33.785156 19.554688 33.683594 19.023438 33.5 C 18.488281 33.316406 17.996094 33.054688 17.539062 32.722656 C 17.085938 32.386719 16.691406 31.992188 16.355469 31.539062 C 16.019531 31.085938 15.757812 30.59375 15.570312 30.0625 C 15.386719 29.527344 15.28125 28.980469 15.261719 28.414062 C 15.242188 27.851562 15.304688 27.296875 15.453125 26.753906 C 15.597656 26.207031 15.824219 25.695312 16.125 25.21875 C 16.425781 24.742188 16.792969 24.320312 17.222656 23.957031 C 17.265625 23.917969 17.300781 23.871094 17.324219 23.820312 C 17.351562 23.769531 17.363281 23.710938 17.363281 23.65625 C 17.363281 23.519531 17.300781 23.421875 17.179688 23.367188 C 17.054688 23.308594 16.941406 23.324219 16.835938 23.410156 C 16.113281 24.015625 15.554688 24.746094 15.164062 25.601562 C 14.769531 26.460938 14.578125 27.359375 14.59375 28.300781 C 14.640625 31.65625 17.480469 34.464844 20.835938 34.472656 Z M 20.835938 34.472656 " fill-opacity="1" fill-rule="nonzero"/></g><g clip-path="url(#e970d5f661)"><path fill="#ffffff" d="M 7.789062 15.664062 L 7.789062 9.421875 C 7.789062 8.945312 7.828125 8.472656 7.910156 8.003906 C 7.992188 7.535156 8.113281 7.078125 8.273438 6.632812 C 8.433594 6.183594 8.632812 5.753906 8.867188 5.339844 C 9.101562 4.925781 9.371094 4.535156 9.671875 4.167969 C 9.976562 3.800781 10.304688 3.464844 10.667969 3.152344 C 11.027344 2.84375 11.410156 2.566406 11.820312 2.324219 C 12.226562 2.078125 12.652344 1.871094 13.097656 1.703125 C 13.542969 1.53125 13.996094 1.402344 14.464844 1.308594 C 14.929688 1.21875 15.402344 1.167969 15.875 1.15625 C 16.351562 1.148438 16.824219 1.179688 17.292969 1.25 C 17.765625 1.320312 18.222656 1.429688 18.675781 1.582031 C 19.125 1.734375 19.558594 1.921875 19.980469 2.144531 C 20.398438 2.371094 20.792969 2.632812 21.167969 2.925781 C 21.539062 3.21875 21.886719 3.542969 22.203125 3.898438 C 22.523438 4.25 22.808594 4.628906 23.058594 5.03125 C 23.3125 5.433594 23.527344 5.855469 23.707031 6.296875 C 23.707031 6.296875 23.710938 6.300781 23.710938 6.300781 L 27.789062 14.871094 C 27.890625 15.085938 27.949219 15.3125 27.960938 15.546875 C 27.972656 15.785156 27.9375 16.015625 27.859375 16.238281 C 27.78125 16.460938 27.660156 16.660156 27.503906 16.835938 C 27.34375 17.011719 27.15625 17.152344 26.945312 17.253906 C 26.941406 17.257812 26.941406 17.257812 26.9375 17.257812 C 26.722656 17.359375 26.5 17.414062 26.261719 17.425781 C 26.027344 17.4375 25.796875 17.402344 25.574219 17.324219 C 25.351562 17.246094 25.152344 17.125 24.976562 16.96875 C 24.800781 16.808594 24.660156 16.621094 24.558594 16.410156 L 22.816406 12.746094 C 22.796875 12.703125 22.761719 12.6875 22.714844 12.699219 C 22.667969 12.707031 22.644531 12.738281 22.644531 12.785156 L 22.644531 27.640625 C 22.644531 27.875 22.597656 28.105469 22.507812 28.324219 C 22.414062 28.542969 22.285156 28.734375 22.117188 28.902344 C 21.949219 29.070312 21.757812 29.199219 21.539062 29.289062 C 21.320312 29.378906 21.089844 29.425781 20.855469 29.425781 C 20.617188 29.425781 20.390625 29.378906 20.171875 29.289062 C 19.953125 29.199219 19.757812 29.070312 19.589844 28.902344 C 19.421875 28.734375 19.292969 28.542969 19.203125 28.324219 C 19.113281 28.105469 19.066406 27.875 19.066406 27.640625 L 19.066406 16.71875 C 19.066406 16.65625 19.035156 16.628906 18.976562 16.628906 C 18.914062 16.628906 18.886719 16.65625 18.886719 16.71875 L 18.886719 18.859375 C 18.882812 19.09375 18.839844 19.324219 18.746094 19.542969 C 18.65625 19.761719 18.527344 19.953125 18.359375 20.121094 C 18.191406 20.289062 18 20.417969 17.78125 20.507812 C 17.5625 20.597656 17.332031 20.644531 17.097656 20.644531 C 16.859375 20.644531 16.632812 20.597656 16.410156 20.507812 C 16.191406 20.417969 16 20.289062 15.832031 20.121094 C 15.664062 19.953125 15.535156 19.761719 15.445312 19.542969 C 15.351562 19.324219 15.308594 19.09375 15.308594 18.859375 L 15.308594 15.28125 C 15.308594 15.222656 15.277344 15.191406 15.214844 15.191406 C 15.15625 15.191406 15.125 15.222656 15.125 15.28125 L 15.125 17.410156 C 15.125 17.511719 15.117188 17.613281 15.101562 17.714844 C 15.0625 17.9375 14.984375 18.140625 14.867188 18.332031 C 14.753906 18.523438 14.605469 18.6875 14.429688 18.824219 C 14.25 18.960938 14.054688 19.0625 13.839844 19.125 C 13.625 19.1875 13.40625 19.210938 13.183594 19.191406 C 12.960938 19.171875 12.75 19.113281 12.546875 19.015625 C 12.347656 18.914062 12.171875 18.785156 12.019531 18.617188 C 11.867188 18.453125 11.753906 18.265625 11.671875 18.058594 C 11.589844 17.851562 11.546875 17.632812 11.546875 17.410156 L 11.546875 13.855469 C 11.546875 13.792969 11.519531 13.765625 11.457031 13.765625 C 11.398438 13.765625 11.367188 13.792969 11.367188 13.855469 L 11.367188 15.664062 C 11.367188 15.878906 11.328125 16.085938 11.253906 16.285156 C 11.121094 16.636719 10.902344 16.917969 10.597656 17.128906 C 10.289062 17.34375 9.953125 17.449219 9.578125 17.453125 C 9.339844 17.449219 9.113281 17.40625 8.894531 17.3125 C 8.675781 17.222656 8.484375 17.09375 8.316406 16.925781 C 8.148438 16.757812 8.019531 16.566406 7.925781 16.347656 C 7.835938 16.128906 7.789062 15.898438 7.789062 15.664062 Z M 7.789062 15.664062 " fill-opacity="1" fill-rule="nonzero"/></g></svg>